<svg width="604" height="605" viewBox="0 0 604 605" fill="none" xmlns="http://www.w3.org/2000/svg">
<path fill-rule="evenodd" clip-rule="evenodd" d="M298.244 9.19893C239.554 9.19893 182.182 26.6025 133.383 59.2089C84.5845 91.8152 46.5504 138.16 24.0907 192.382C1.63106 246.605 -4.24541 306.27 7.20442 363.832C18.6543 421.394 46.9161 474.268 88.4162 515.768C129.916 557.268 182.79 585.53 240.353 596.98C297.915 608.43 357.58 602.553 411.802 580.094C466.024 557.634 512.369 519.6 544.975 470.801C577.582 422.002 594.985 364.63 594.985 305.94H596.488C596.488 364.927 578.996 422.59 546.225 471.636C513.453 520.682 466.874 558.908 412.377 581.482C357.88 604.055 297.913 609.961 240.06 598.454C182.206 586.946 129.064 558.541 87.3537 516.831C45.6436 475.12 17.2386 421.979 5.73081 364.125C-5.777 306.271 0.129226 246.304 22.7026 191.807C45.276 137.31 83.5026 90.7311 132.549 57.9596C181.595 25.1881 239.257 7.69645 298.244 7.69645V9.19893Z" fill="url(#paint0_linear_1_581)"/>
<path fill-rule="evenodd" clip-rule="evenodd" d="M300.489 79.8337C343.61 80.3326 385.693 93.1313 421.791 116.725C457.888 140.32 486.5 173.729 504.263 213.025C522.025 252.321 528.2 295.872 522.062 338.557C515.924 381.243 497.728 421.289 469.612 453.988C441.497 486.687 404.631 510.68 363.348 523.147C322.065 535.614 278.08 536.037 236.566 524.365C195.051 512.693 157.731 489.412 128.992 457.259C100.254 425.106 81.292 385.416 74.3353 342.857L75.8181 342.614C82.7287 384.892 101.565 424.318 130.113 456.258C158.66 488.198 195.733 511.324 236.972 522.918C278.212 534.513 321.904 534.093 362.913 521.709C403.923 509.325 440.544 485.491 468.473 453.008C496.402 420.526 514.478 380.746 520.575 338.344C526.673 295.941 520.538 252.68 502.893 213.644C485.249 174.608 456.827 141.421 420.969 117.983C385.111 94.5455 343.307 81.8316 300.471 81.3361L300.489 79.8337Z" fill="url(#paint1_linear_1_581)"/>
<path d="M307.259 8.44898C307.259 13.0129 303.559 16.7127 298.995 16.7127C294.431 16.7127 290.731 13.0129 290.731 8.44898C290.731 3.88508 294.431 0.185303 298.995 0.185303C303.559 0.185303 307.259 3.88508 307.259 8.44898Z" fill="url(#paint2_linear_1_581)"/>
<path d="M307.259 80.5699C307.259 85.1338 303.559 88.8335 298.995 88.8335C294.431 88.8335 290.732 85.1338 290.732 80.5699C290.732 76.006 294.431 72.3062 298.995 72.3062C303.559 72.3062 307.259 76.006 307.259 80.5699Z" fill="url(#paint3_linear_1_581)"/>
<path d="M83.3883 347.26C83.3883 351.824 79.6885 355.523 75.1246 355.523C70.5607 355.523 66.8609 351.824 66.8609 347.26C66.8609 342.696 70.5607 338.996 75.1246 338.996C79.6885 338.996 83.3883 342.696 83.3883 347.26Z" fill="url(#paint4_linear_1_581)"/>
<path d="M604 306.693C604 311.257 600.3 314.957 595.736 314.957C591.172 314.957 587.473 311.257 587.473 306.693C587.473 302.129 591.172 298.429 595.736 298.429C600.3 298.429 604 302.129 604 306.693Z" fill="url(#paint5_linear_1_581)"/>
<defs>
<linearGradient id="paint0_linear_1_581" x1="302" y1="0.185303" x2="302" y2="604.184" gradientUnits="userSpaceOnUse">
<stop offset="0.223958" stop-color="#26F5BD"/>
<stop offset="0.666667" stop-color="#E1FEF6"/>
</linearGradient>
<linearGradient id="paint1_linear_1_581" x1="302" y1="0.185303" x2="302" y2="604.184" gradientUnits="userSpaceOnUse">
<stop offset="0.223958" stop-color="#26F5BD"/>
<stop offset="0.666667" stop-color="#E1FEF6"/>
</linearGradient>
<linearGradient id="paint2_linear_1_581" x1="302" y1="0.185303" x2="302" y2="604.184" gradientUnits="userSpaceOnUse">
<stop offset="0.223958" stop-color="#26F5BD"/>
<stop offset="0.666667" stop-color="#E1FEF6"/>
</linearGradient>
<linearGradient id="paint3_linear_1_581" x1="302" y1="0.185303" x2="302" y2="604.184" gradientUnits="userSpaceOnUse">
<stop offset="0.223958" stop-color="#26F5BD"/>
<stop offset="0.666667" stop-color="#E1FEF6"/>
</linearGradient>
<linearGradient id="paint4_linear_1_581" x1="302" y1="0.185303" x2="302" y2="604.184" gradientUnits="userSpaceOnUse">
<stop offset="0.223958" stop-color="#26F5BD"/>
<stop offset="0.666667" stop-color="#E1FEF6"/>
</linearGradient>
<linearGradient id="paint5_linear_1_581" x1="302" y1="0.185303" x2="302" y2="604.184" gradientUnits="userSpaceOnUse">
<stop offset="0.223958" stop-color="#26F5BD"/>
<stop offset="0.666667" stop-color="#E1FEF6"/>
</linearGradient>
</defs>
</svg>
