<svg id="Group_12909" data-name="Group 12909" xmlns="http://www.w3.org/2000/svg" xmlns:xlink="http://www.w3.org/1999/xlink" width="53.472" height="63.975" viewBox="0 0 53.472 63.975">
  <defs>
    <clipPath id="clip-path">
      <rect id="Rectangle_8697" data-name="Rectangle 8697" width="53.472" height="63.975" fill="#fff"/>
    </clipPath>
  </defs>
  <g id="Group_12908" data-name="Group 12908" clip-path="url(#clip-path)">
    <path id="Path_11073" data-name="Path 11073" d="M48.8,122.162a4.138,4.138,0,0,1-2.934-2.209,5.969,5.969,0,0,1-.482-2.22c-.055-2.706-.022-5.414-.022-8.122V108.8c-.888,0-1.715.007-2.543,0a2.513,2.513,0,0,1-2.787-2.787q-.016-13.089,0-26.178c0-.1.012-.207.022-.361H72.038c.01.207.029.409.029.611,0,8.56.011,17.119-.018,25.679a4.526,4.526,0,0,1-.463,1.956,2.15,2.15,0,0,1-2,1.068c-.913.024-1.827.005-2.813.005-.016.283-.04.522-.04.76,0,2.541-.065,5.084.016,7.622.078,2.438-.8,4.232-3.455,4.991H62.171c-2.652-.731-3.546-2.553-3.474-4.974.077-2.557.018-5.118.016-7.678,0-.221-.02-.442-.031-.667h-5.3v.791c0,2.684.036,5.369-.022,8.053a6.181,6.181,0,0,1-.5,2.277,4.1,4.1,0,0,1-2.938,2.2Z" transform="translate(-29.307 -58.186)" fill="#fff"/>
    <path id="Path_11074" data-name="Path 11074" d="M72.051,18.525H39.976a15.652,15.652,0,0,1,6.658-12.82c-1.118-1.118-2.211-2.2-3.29-3.294A1.32,1.32,0,0,1,43.177.426c.578-.6,1.318-.568,2.032.13,1.027,1,2.061,2,3.042,3.051a.957.957,0,0,0,1.268.247,16.474,16.474,0,0,1,12.978,0,.956.956,0,0,0,1.27-.241c.995-1.063,2.046-2.075,3.086-3.1a1.324,1.324,0,0,1,2.34.623,1.444,1.444,0,0,1-.555,1.316L65.387,5.707a15.683,15.683,0,0,1,6.664,12.819M49.33,13.872a1.975,1.975,0,0,0,1.985-1.978,1.99,1.99,0,1,0-3.979.007,1.98,1.98,0,0,0,1.994,1.971m13.375,0a1.98,1.98,0,0,0,1.98-1.986,1.99,1.99,0,1,0-3.979.022,1.975,1.975,0,0,0,2,1.964" transform="translate(-29.27 -0.001)" fill="#fff"/>
    <path id="Path_11075" data-name="Path 11075" d="M8.025,92.612c0,3.061.012,6.121,0,9.181a4.088,4.088,0,0,1-3.344,4.139A4.008,4.008,0,0,1,.032,101.91C-.015,95.747,0,89.584.027,83.422a4.083,4.083,0,0,1,3.633-4.1,4.058,4.058,0,0,1,4.248,3.116,5.538,5.538,0,0,1,.111,1.3c.009,2.956,0,5.913,0,8.869" transform="translate(0 -58.067)" fill="#fff"/>
    <path id="Path_11076" data-name="Path 11076" d="M169.728,92.636c0-3.019-.008-6.038,0-9.057a4.1,4.1,0,0,1,2.645-3.994,4.033,4.033,0,0,1,5.357,4.047q.02,6.433,0,12.867c-.005,2.018.053,4.043-.1,6.051a3.951,3.951,0,0,1-7.87-.3c-.064-3.2-.017-6.412-.017-9.618h-.02" transform="translate(-124.271 -58.091)" fill="#fff"/>
  </g>
</svg>
