<svg id="Group_17065" data-name="Group 17065" xmlns="http://www.w3.org/2000/svg" xmlns:xlink="http://www.w3.org/1999/xlink" width="67.504" height="76.387" viewBox="0 0 67.504 76.387">
  <defs>
    <clipPath id="clip-path">
      <rect id="Rectangle_11619" data-name="Rectangle 11619" width="67.504" height="76.388" fill="#587b90" stroke="#707070" stroke-width="1"/>
    </clipPath>
  </defs>
  <g id="Group_17064" data-name="Group 17064" clip-path="url(#clip-path)">
    <path id="Path_79601" data-name="Path 79601" d="M41.2,76.388c-.849-.492-1.68-1.02-2.556-1.455a2.112,2.112,0,0,0-1.119-.117,21,21,0,0,1-8.908-.681,10.988,10.988,0,0,1-6.8-5.632.812.812,0,0,0-.881-.476q-4.318.016-8.636,0A8.052,8.052,0,0,1,3.98,59.715q-.013-5.222.009-10.443a.874.874,0,0,0-.539-.93,15.364,15.364,0,0,1-1.358-.772,3.866,3.866,0,0,1-.344-6.6l.347-.26A4.041,4.041,0,0,1,.11,37.229,3.978,3.978,0,0,1,2.1,33.847C-.968,31.815-.387,28.334,2,26.89a3.958,3.958,0,0,1,1.974-7.334v-3q0-4.028,0-8.056a8.027,8.027,0,0,1,6.81-8.39A.712.712,0,0,0,10.977,0h27.7c.449.122.9.232,1.346.369a8.048,8.048,0,0,1,5.646,7.754c.021,5.344.006,10.688.006,16.033v.784c.069.06.1.11.138.116,2.745.435,4.03,1.932,4.031,4.707,0,3.182-.007,6.363.012,9.545a1.544,1.544,0,0,0,.271.949,18.737,18.737,0,0,1,4.333,10.505c.247,1.971.439,3.949.614,5.928a2.493,2.493,0,0,0,.765,1.687Q60.973,63.457,66.05,68.6a4.46,4.46,0,0,1-.541,7.023,11.922,11.922,0,0,1-1.671.765ZM38.079,66.242c-.106-.983-.248-1.842-.285-2.706a26.251,26.251,0,0,1,3.348-13.5,2.993,2.993,0,0,0,.345-1.326q.033-9.621.012-19.242a4.086,4.086,0,0,1,1.994-3.755.816.816,0,0,0,.392-.859c0-5.544.006-11.088-.012-16.632a6.417,6.417,0,0,0-.241-1.836c-1.142-3.724-4.188-4.874-7.548-4.576-.163.014-.353.237-.45.409-.509.909-.979,1.841-1.485,2.752a5.059,5.059,0,0,1-4.671,2.784q-4.875.022-9.751,0a5.061,5.061,0,0,1-4.677-2.774c-.507-.91-.975-1.843-1.49-2.749a.847.847,0,0,0-.512-.424A6.345,6.345,0,0,0,5.76,8.144c.026,3.779.013,7.558,0,11.337a.861.861,0,0,0,.512.866c1.577.888,3.161,1.769,4.7,2.724a3.849,3.849,0,0,1,.265,6.506c-.112.084-.217.179-.336.278,2.22,1.5,2.83,4.711-.036,6.83,3.04,2.147,2.38,5.479.038,6.968a1.915,1.915,0,0,0,.164.152,3.88,3.88,0,1,1-4.212,6.515c-.332-.188-.671-.361-1.082-.582,0,3.352,0,6.582,0,9.812a6.282,6.282,0,0,0,6.649,6.692q12.394,0,24.788,0ZM23.594,68.034A9.3,9.3,0,0,0,28.6,72.222a18.523,18.523,0,0,0,9.61.67,1.426,1.426,0,0,1,1.446.489,3.6,3.6,0,0,0,2.9,1.236c4.739-.047,9.48-.019,14.22-.019,2.06,0,4.12.012,6.179,0A2.658,2.658,0,0,0,65.7,72.187a2.89,2.89,0,0,0-1.023-2.446Q59.353,64.424,54.04,59.094a2.1,2.1,0,0,1-.669-1.423q-.229-2.972-.572-5.935c-.463-4-1.53-7.746-4.405-10.764a1.716,1.716,0,0,1-.325-1.089c-.024-3.481-.007-6.962-.018-10.443a2.386,2.386,0,1,0-4.759.1c0,6.291-.014,12.582.011,18.872a4.926,4.926,0,0,1-.659,2.684,17.935,17.935,0,0,0-1.355,2.894c-1.853,4.921-2.676,9.879-.362,14.907a.827.827,0,0,1-.4,1.2.846.846,0,0,1-1.226-.48c-.252-.531-.473-1.076-.693-1.581ZM15.386,1.822c.471.871.883,1.682,1.34,2.467A3.194,3.194,0,0,0,19.612,5.96c3.325.02,6.65.012,9.976,0a2.938,2.938,0,0,0,2.48-1.146c.659-.911,1.163-1.935,1.785-3ZM11,33.3a1.833,1.833,0,0,0-.853-1.719c-1.782-1.072-3.574-2.131-5.4-3.123a2.005,2.005,0,0,0-2.653.786,1.992,1.992,0,0,0,.6,2.763c1.769,1.093,3.561,2.159,5.405,3.117A2.017,2.017,0,0,0,11,33.3m.274-6.985c-.314-.508-.51-1.2-.964-1.491-1.813-1.158-3.682-2.237-5.581-3.25a1.965,1.965,0,0,0-2.562.881,1.941,1.941,0,0,0,.491,2.605C4.5,26.219,6.371,27.343,8.31,28.327c1.287.653,2.8-.467,2.96-2.011m-9.4,17.816-.18.114c.329.52.54,1.226,1.009,1.527,1.791,1.148,3.642,2.209,5.518,3.213a2.05,2.05,0,0,0,2.05-3.514c-1.825-1.142-3.679-2.25-5.6-3.226a2,2,0,0,0-2.8,1.886M11.1,39.82c-.161-.253-.367-.937-.822-1.228-1.791-1.143-3.638-2.205-5.51-3.21a1.976,1.976,0,0,0-2.614.891,1.964,1.964,0,0,0,.58,2.647c1.807,1.119,3.637,2.215,5.529,3.177,1.317.67,2.87-.462,2.837-2.276" transform="translate(0)" fill="#587b90" stroke="#707070" stroke-width="1"/>
    <path id="Path_79602" data-name="Path 79602" d="M87.064,152.212a8.626,8.626,0,0,0,1.3-.705c.542-.43,1.018-.943,1.522-1.422q3.78-3.586,7.562-7.171a1.962,1.962,0,0,0,.738-1.982,1.838,1.838,0,0,0-3.17-.786c-2.351,2.209-4.682,4.438-7.026,6.653-.719.679-1.053.669-1.757-.029-.776-.768-1.531-1.558-2.319-2.313a1.861,1.861,0,0,0-2.668-.09,1.8,1.8,0,0,0,.05,2.659c1.453,1.494,2.922,2.975,4.425,4.418a6.392,6.392,0,0,0,1.34.767" transform="translate(-64.636 -111.78)" fill="#587b90" stroke="#707070" stroke-width="1"/>
    <path id="Path_79603" data-name="Path 79603" d="M98.528,294c1.761,0,3.522,0,5.282,0,.78,0,1.225.336,1.179.913-.055.692-.522.88-1.146.879q-5.394-.01-10.788,0c-.624,0-1.09-.19-1.142-.882-.044-.576.4-.908,1.182-.91,1.81,0,3.621,0,5.431,0" transform="translate(-73.628 -235.511)" fill="#587b90" stroke="#707070" stroke-width="1"/>
  </g>
</svg>
