<svg id="Group_12871" data-name="Group 12871" xmlns="http://www.w3.org/2000/svg" xmlns:xlink="http://www.w3.org/1999/xlink" width="62" height="61.099" viewBox="0 0 62 61.099">
  <defs>
    <clipPath id="clip-path">
      <rect id="Rectangle_8681" data-name="Rectangle 8681" width="62" height="61.099" fill="#48aaad" stroke="#48aaad" stroke-width="1"/>
    </clipPath>
  </defs>
  <g id="Group_12870" data-name="Group 12870" clip-path="url(#clip-path)">
    <path id="Path_11024" data-name="Path 11024" d="M0,11.738c.085-.073.17-.144.256-.222Q5.961,5.9,11.663.283A3.663,3.663,0,0,0,11.9,0L32.671,20.446a1.683,1.683,0,0,1,.2-.339q7.711-7.6,15.431-15.2a17.718,17.718,0,0,1,2.188-1.972,6.168,6.168,0,0,1,9.552,4.073,5.916,5.916,0,0,1-1.816,5.3Q45.5,24.854,32.771,37.4q-9.529,9.381-19.034,18.754a2.249,2.249,0,0,1-1.039.606c-3.055.794-6.091,1.6-9.136,2.395a1.251,1.251,0,0,1-1.614-1.59Q3.183,53.02,4.418,48.48a1.873,1.873,0,0,1,.541-.891Q12.678,40,20.4,32.4a2.173,2.173,0,0,1,.324-.219c-.139-.149-.209-.224-.28-.3L.192,11.96C.132,11.9.063,11.853,0,11.8ZM50.374,6.529Q28.641,27.931,6.938,49.3l5.032,4.974L55.408,11.492ZM19.521,11.095,16.673,13.91,14.9,12.176l2.863-2.8L15.719,7.339,14.149,8.9l-1.77-1.728,1.587-1.538L11.919,3.615,3.629,11.778l18.807,18.5L29.117,23.7l-1.585-1.527,1.6-1.551L27.109,18.6l-2.821,2.783-1.77-1.765,2.811-2.761-2.006-2-1.539,1.527L19.971,14.6l1.57-1.527Z" fill="#48aaad" stroke="#48aaad" stroke-width="1"/>
    <path id="Path_11025" data-name="Path 11025" d="M37.5,48.938c-.075-.085-.146-.17-.226-.255l-19.1-19.109c-.071-.071-.141-.149-.2-.205l1.775-1.775L37.509,45.324l8.326-8.306-.811-.747L43.471,37.83l-1.748-1.779,1.55-1.527-2.059-2.059L38.4,35.294l-1.777-1.775L39.461,30.7l-2.037-2-1.51,1.527L34.086,28.4l1.577-1.527-2.052-1.991-2.8,2.8-1.819-1.821,2.856-2.76-2.026-2.021-1.5,1.563-1.8-1.787,3.326-3.415L49.462,37.068a2.777,2.777,0,0,0-.28.227Q43.488,42.985,37.8,48.678c-.081.081-.154.17-.227.258Z" transform="translate(12.538 12.161)" fill="#48aaad" stroke="#48aaad" stroke-width="1"/>
  </g>
</svg>
