<svg id="Group_17067" data-name="Group 17067" xmlns="http://www.w3.org/2000/svg" xmlns:xlink="http://www.w3.org/1999/xlink" width="58.065" height="72.545" viewBox="0 0 58.065 72.545">
  <defs>
    <clipPath id="clip-path">
      <rect id="Rectangle_11620" data-name="Rectangle 11620" width="58.065" height="72.545" fill="#587b90"/>
    </clipPath>
  </defs>
  <g id="Group_17066" data-name="Group 17066" clip-path="url(#clip-path)">
    <path id="Path_79604" data-name="Path 79604" d="M33.563,0a20.672,20.672,0,0,1,2.448,1.044,5.592,5.592,0,0,1,2.268,2.817c.269-.056.535-.125.8-.166a4.552,4.552,0,0,1,4.078,1.313A32.754,32.754,0,0,1,52.548,22.65a41.436,41.436,0,0,1,.317,12.828,1.026,1.026,0,0,0,.392,1.037c1.159.968,2.269,2,3.427,2.966a3.691,3.691,0,0,1,1.381,3.035c-.023,3.139-.015,6.279,0,9.419a2.246,2.246,0,0,1-1.044,2.174,2.217,2.217,0,0,1-2.455-.223c-1.949-1.2-3.92-2.357-5.7-3.422a14.369,14.369,0,0,0-1.2.984.754.754,0,0,0-.111.605c.217.941.435,1.885.725,2.806.523,1.659.335,3.078-1.264,4.094a8.091,8.091,0,0,1,.9,7.206c-.493,1.534-1.412,1.873-2.759,1.1a20.256,20.256,0,0,1-1.61,2.562,18,18,0,0,1-2.473,2.3,1.849,1.849,0,0,1-2.361,0,10.309,10.309,0,0,1-3.718-4.356q-.1-.224-.212-.445c-.008-.017-.035-.025-.053-.037-1.377.706-2.446.645-3.121-1.989H30.8q-12.113,0-24.226,0c-4.05,0-6.571-2.532-6.571-6.6Q0,32.7,0,6.71C0,3.072,1.606.986,5.1.071A.513.513,0,0,0,5.225,0Zm-.9,58.854c-1.428-.905-1.65-2.291-1.13-3.934.3-.942.516-1.911.737-2.876a.747.747,0,0,0-.121-.6,11.983,11.983,0,0,0-1.1-.883c-.076-.093-.279.016-.477.134-1.821,1.091-3.636,2.191-5.462,3.274a2.056,2.056,0,0,1-3.324-1.847c-.01-3.281.007-6.562-.008-9.843a3.37,3.37,0,0,1,1.27-2.717c1.15-.979,2.271-1.993,3.429-2.963a1.169,1.169,0,0,0,.47-1.135c-.157-2-.31-4-.322-6a33.255,33.255,0,0,1,9.2-23.583.9.9,0,0,0,.217-1.069A3.307,3.307,0,0,0,33.18,2.482c-1.753-.13-3.523-.031-5.367-.031,0,.386.009.735,0,1.084a3.583,3.583,0,0,1-3.785,3.7c-3.163.011-6.327.018-9.491,0A3.585,3.585,0,0,1,10.894,3.6c-.007-.389,0-.777,0-1.19-1.557,0-3,0-4.435,0a3.685,3.685,0,0,0-4.04,4.045q0,26.166,0,52.331A3.706,3.706,0,0,0,6.5,62.872q12.076,0,24.152,0h.609l1.405-4.018M39.949,14.5c-2.243,0-4.486.015-6.729-.012a.855.855,0,0,0-.912.57,31.971,31.971,0,0,0-3.1,10.968,43.206,43.206,0,0,0,3.964,22.795,1.127,1.127,0,0,0,1.175.769q5.56-.044,11.121,0a1.122,1.122,0,0,0,1.18-.757,43.286,43.286,0,0,0,4.162-17.913,34.236,34.236,0,0,0-3.293-15.849.857.857,0,0,0-.906-.58c-2.219.026-4.439.012-6.658.012M45.857,64.43a5.374,5.374,0,0,0-1.442-4.8,1.335,1.335,0,0,0-.842-.383c-2.453-.03-4.907-.019-7.36-.012a1.044,1.044,0,0,0-.531.12,5.173,5.173,0,0,0-1.659,5.022c1.916-.7,2.115-.6,2.768,1.331a8.571,8.571,0,0,0,3.131,4.311,8.847,8.847,0,0,0,3.284-4.89c.289-1.074.939-1.382,1.983-.978.2.076.386.164.668.284M45.02,51.986c-3.319,0-6.6-.006-9.878.018-.151,0-.388.236-.436.4-.342,1.2-.645,2.413-.96,3.621-.142.545.045.8.631.788,1.062-.02,2.125-.005,3.187-.005q3.9,0,7.791,0c.479,0,.893-.05.729-.7-.347-1.367-.7-2.732-1.065-4.13M52.432,39c-.417,1.639-.75,3.156-1.194,4.64-.45,1.5-1.01,2.974-1.536,4.5L55.639,51.7c0-3.257.006-6.347-.012-9.437a1.039,1.039,0,0,0-.277-.691c-.935-.859-1.9-1.682-2.918-2.568M24.2,51.7l5.92-3.55c-.527-1.543-1.082-3.018-1.533-4.524s-.795-3.035-1.2-4.618a9.67,9.67,0,0,1-1.147.973,4.319,4.319,0,0,0-2.083,4.51c.19,2.34.044,4.707.044,7.209M45.8,12.036a26.768,26.768,0,0,0-4.528-5.457,2,2,0,0,0-2.818.074,21.328,21.328,0,0,0-1.808,1.886c-.908,1.1-1.759,2.239-2.738,3.5ZM25.392,2.466H13.306c0,.333,0,.615,0,.9.014,1.03.436,1.452,1.467,1.465.236,0,.472,0,.708,0q4.175,0,8.35,0c1.176,0,1.551-.385,1.56-1.574,0-.253,0-.507,0-.786" transform="translate(0)" fill="#587b90"/>
    <path id="Path_79605" data-name="Path 79605" d="M50.595,224.165c2.338,0,4.676,0,7.014,0a1.207,1.207,0,0,1,1.349.895A1.183,1.183,0,0,1,57.8,226.57c-.564.042-1.133.014-1.7.014q-6.093,0-12.185,0a5.188,5.188,0,0,1-.707-.021,1.212,1.212,0,0,1-1.116-1.242,1.167,1.167,0,0,1,1.2-1.143c.754-.03,1.511-.013,2.266-.013q2.515,0,5.03,0" transform="translate(-31.198 -166.13)" fill="#587b90"/>
    <path id="Path_79606" data-name="Path 79606" d="M133.467,74.76A7.247,7.247,0,1,1,126.2,81.9a7.247,7.247,0,0,1,7.268-7.141m-4.849,7.232a4.83,4.83,0,1,0,4.813-4.815,4.83,4.83,0,0,0-4.813,4.815" transform="translate(-93.528 -55.406)" fill="#587b90"/>
  </g>
</svg>
