<svg xmlns="http://www.w3.org/2000/svg" width="53.103" height="60.5" viewBox="0 0 53.103 60.5">
  <g id="Group_17047" data-name="Group 17047" transform="translate(-1394.942 -938.068)">
    <path id="Path_2386" data-name="Path 2386" d="M585.693,21.333a13.252,13.252,0,0,1-7.666,13.935,13.07,13.07,0,0,1-5.353,1.183,13.94,13.94,0,0,1,.409-5.522,13.264,13.264,0,0,1,11.157-9.491,2.713,2.713,0,0,0,.39-.1Z" transform="translate(848.858 916.735)" fill="#fff"/>
    <path id="Path_2387" data-name="Path 2387" d="M479,109.318a34.834,34.834,0,0,0-2.59,2.446,12.719,12.719,0,0,0-2.909,7.644,15.717,15.717,0,0,0,1.139,7.629,11.557,11.557,0,0,0,5.846,5.987c.157.074.31.159.563.29-.484,1.069-.928,2.135-1.439,3.167a33.191,33.191,0,0,1-7.975,10.73c-.1.09-.217.17-.318.264-2.6,2.4-5.532,2.238-8.612,1.169-1.539-.534-3.092-1.053-4.673-1.437a11.7,11.7,0,0,0-6.449.514c-1.458.472-2.923.922-4.39,1.365a7.264,7.264,0,0,1-7.044-1.58,31.75,31.75,0,0,1-7.242-8.645,34.565,34.565,0,0,1-4.637-12.6,24.26,24.26,0,0,1,.689-10.986c1.846-5.877,5.944-9.307,11.846-10.771a15.3,15.3,0,0,1,10.237,1.108c.233.1.475.191.7.305a8.109,8.109,0,0,0,6.793.313,39.786,39.786,0,0,1,5.667-1.806c5.111-1.084,9.6.354,13.529,3.711.461.394.888.829,1.265,1.182" transform="translate(966.991 849.15)" fill="#fff"/>
  </g>
</svg>
