<svg xmlns="http://www.w3.org/2000/svg" width="56.049" height="66.19" viewBox="0 0 56.049 66.19">
  <g id="Group_17050" data-name="Group 17050" transform="translate(-1837.131 -933.659)">
    <g id="Group_17090" data-name="Group 17090">
      <path id="Path_2382" data-name="Path 2382" d="M2649.313,0a.84.84,0,0,1,.078,1.152c-.9,1.616-1.768,3.245-2.666,4.9,5.707,3.232,9.078,7.926,9.36,14.672h-36.851c.259-6.736,3.631-11.414,9.384-14.668-.368-.684-.741-1.377-1.115-2.068-.522-.965-1.035-1.936-1.574-2.891A.8.8,0,0,1,2626.038,0h.517c.215.343.448.677.644,1.032.829,1.5,1.646,3.007,2.481,4.536a20.122,20.122,0,0,1,15.994-.006c.356-.649.67-1.235,1-1.815Q2647.728,1.87,2648.8,0Zm-20.057,14.1a1.566,1.566,0,0,0,1.562-1.478,1.593,1.593,0,0,0-1.521-1.592,1.546,1.546,0,0,0-1.513,1.519,1.522,1.522,0,0,0,1.472,1.551m16.843,0a1.524,1.524,0,0,0,1.467-1.556,1.547,1.547,0,0,0-1.517-1.514,1.6,1.6,0,0,0-1.518,1.533A1.565,1.565,0,0,0,2646.1,14.1" transform="translate(-772.52 933.659)" fill="#fff"/>
      <path id="Path_2383" data-name="Path 2383" d="M2649.455,150.647c0,.412,0,.71,0,1.009-.021,2.842.026,5.687-.086,8.526a3.927,3.927,0,0,1-3.964,3.59,4.044,4.044,0,0,1-4.074-3.419,10.156,10.156,0,0,1-.085-1.351c-.008-2.755,0-5.51,0-8.31h-5.47v.7c0,2.693.015,5.385,0,8.078a4.1,4.1,0,0,1-3.587,4.274,4,4,0,0,1-4.528-3.8c-.084-2.82-.065-5.643-.091-8.464,0-.253,0-.506,0-.875-1.169,0-2.264.047-3.355-.01a4.234,4.234,0,0,1-3.929-4c-.014-.258-.019-.517-.019-.775q0-12.633,0-25.267v-.728h36.469c.011.229.031.438.031.646,0,8.487-.029,16.974.019,25.461a4.389,4.389,0,0,1-3.377,4.578,22.01,22.01,0,0,1-3.09.135c-.254.008-.509,0-.855,0" transform="translate(-773.352 836.076)" fill="#fff"/>
      <path id="Path_2384" data-name="Path 2384" d="M2825.677,128.145c0-2.972-.059-5.946.02-8.917a3.883,3.883,0,0,1,3.9-3.644,3.973,3.973,0,0,1,4.135,3.546,12.133,12.133,0,0,1,.067,1.224q.006,7.982.006,15.964a4.234,4.234,0,0,1-1.7,3.716,3.87,3.87,0,0,1-4.037.436,3.623,3.623,0,0,1-2.366-3.278c-.073-3.014-.021-6.03-.021-9.046h0" transform="translate(-940.623 839.532)" fill="#fff"/>
      <path id="Path_2385" data-name="Path 2385" d="M2575.73,128.124c0,2.972.059,5.946-.02,8.915a3.879,3.879,0,0,1-3.928,3.678,4,4,0,0,1-4.106-3.585,12.125,12.125,0,0,1-.066-1.224c0-5.32,0-10.641-.007-15.961a4.154,4.154,0,0,1,2.334-4.062,4,4,0,0,1,5.767,3.259c.114,2.989.026,5.986.026,8.98" transform="translate(-730.472 839.626)" fill="#fff"/>
    </g>
  </g>
</svg>
