<svg xmlns="http://www.w3.org/2000/svg" width="68.019" height="57.148" viewBox="0 0 68.019 57.148">
  <g id="Group_17091" data-name="Group 17091" transform="translate(-1443.543 -1826.062)">
    <g id="Group_17052" data-name="Group 17052" transform="translate(-145.146 889.368)">
      <path id="Path_2374" data-name="Path 2374" d="M1365.45,56.83a15.964,15.964,0,0,1,1.2-2.833,5.521,5.521,0,0,1,4.818-2.469c8.367-.022,16.735-.008,25.1-.006a1.471,1.471,0,0,1,.181.029V84.064h-31.3Zm21.266,17.828c.2-.061.364-.117.533-.165a7.287,7.287,0,1,0-8.63-9.711.9.9,0,0,1-1.047.7c-1.364-.049-2.73-.016-4.108-.016V78.7h13.251Z" transform="translate(223.239 891.307)" fill="#fff"/>
      <path id="Path_2375" data-name="Path 2375" d="M1365.45,271.092h31.309v7.971h-.657q-12.152,0-24.3,0a5.936,5.936,0,0,1-5.744-3.433,12.74,12.74,0,0,1-.6-1.88Z" transform="translate(223.239 708.264)" fill="#fff"/>
      <path id="Path_2376" data-name="Path 2376" d="M1584.861,14.7c0,2.4,0,4.715,0,7.035a4.851,4.851,0,0,0,.9,2.994,4.575,4.575,0,0,0,3.824,1.92c3.033.02,6.066.028,9.1,0a4.64,4.64,0,0,0,4.767-4.8c.022-2.346,0-4.692,0-7.035,2.953-.369,5.239-.059,6.52,2.509a5.186,5.186,0,0,1,.5,2.234q.042,23.709.016,47.418a4.639,4.639,0,0,1-4.857,4.849q-11.49.02-22.979,0a4.627,4.627,0,0,1-4.833-4.8q-.019-23.743,0-47.485a4.649,4.649,0,0,1,4.815-4.827c.707-.01,1.414,0,2.22,0m.961,36.484h11.927V47.013c.215-.069.4-.13.59-.189a5.963,5.963,0,0,0-.6-11.534,5.92,5.92,0,0,0-6.632,3.453.746.746,0,0,1-.828.546c-1.476-.031-2.953-.012-4.46-.012Z" transform="translate(46.206 922.01)" fill="#fff"/>
      <path id="Path_2377" data-name="Path 2377" d="M1644.185,14.892h10.5c.017.179.047.347.047.515q0,3.221,0,6.442c0,.783-.205.994-.972.995-2.9,0-5.8,0-8.7.006-.576,0-.952-.183-.953-.821q0-3.42,0-6.841a1.266,1.266,0,0,1,.071-.3" transform="translate(-9.057 921.836)" fill="#fff"/>
      <path id="Path_2378" data-name="Path 2378" d="M1471.917,130.706a3.316,3.316,0,1,1-3.3-3.3,3.349,3.349,0,0,1,3.3,3.3" transform="translate(140.016 828.047)" fill="#fff"/>
      <path id="Path_2379" data-name="Path 2379" d="M1442.687,164.537H1437.5v-5.225c.574-.15.923-.083,1.169.6a7.021,7.021,0,0,0,3.638,3.952,2.744,2.744,0,0,1,.562.521l-.182.155" transform="translate(163.178 801.501)" fill="#fff"/>
      <path id="Path_2380" data-name="Path 2380" d="M1680.424,161.736a1.988,1.988,0,1,1-1.958,2.018,2.007,2.007,0,0,1,1.958-2.018" transform="translate(-37.696 799.425)" fill="#fff"/>
      <path id="Path_2381" data-name="Path 2381" d="M1653.886,190.281h-3.871V186.42c.957-.249.979-.153,1.525.63a12.808,12.808,0,0,0,1.892,2.073c.5.454.555.391.455,1.158" transform="translate(-13.979 778.95)" fill="#fff"/>
    </g>
  </g>
</svg>
